Coordinates
nRows=400
nColumns=2
inDegrees=yes
endheader
time	ankle_angle_r	
0	  5.132143	
0.0332661	  5.151968	
0.0665323	  5.165897	
0.0997984	  5.169434	
0.133065	  5.167077	
0.166331	  5.166827	
0.199597	  5.171164	
0.232863	  5.177436	
0.266129	  5.181912	
0.299395	  5.185650	
0.332661	  5.191925	
0.365927	  5.197087	
0.399194	  5.196447	
0.43246	  5.193284	
0.465726	  5.188582	
0.498992	  5.176008	
0.532258	  5.153882	
0.565524	  5.129398	
0.59879	  5.115141	
0.632056	  5.117072	
0.665323	  5.117664	
0.698589	  5.095332	
0.731855	  5.059154	
0.765121	  5.033975	
0.798387	  5.027928	
0.831653	  5.035325	
0.864919	  5.046317	
0.898185	  5.048279	
0.931452	  5.039340	
0.964718	  5.032905	
0.997984	  5.038552	
1.03125	  5.051146	
1.06452	  5.059944	
1.09778	  5.063057	
1.13105	  5.071195	
1.16431	  5.091662	
1.19758	  5.114674	
1.23085	  5.124087	
1.26411	  5.118997	
1.29738	  5.115666	
1.33065	  5.124629	
1.36391	  5.141068	
1.39718	  5.159589	
1.43044	  5.177290	
1.46371	  5.187626	
1.49698	  5.189232	
1.53024	  5.190168	
1.56351	  5.197278	
1.59677	  5.210542	
1.63004	  5.223711	
1.66331	  5.229350	
1.69657	  5.228226	
1.72984	  5.227428	
1.7631	  5.230443	
1.79637	  5.235636	
1.82964	  5.238797	
1.8629	  5.237210	
1.89617	  5.234313	
1.92944	  5.233521	
1.9627	  5.231272	
1.99597	  5.222678	
2.02923	  5.207054	
2.0625	  5.188287	
2.09577	  5.172705	
2.12903	  5.160630	
2.1623	  5.146207	
2.19556	  5.130553	
2.22883	  5.119858	
2.2621	  5.111961	
2.29536	  5.103334	
2.32863	  5.095092	
2.3619	  5.081743	
2.39516	  5.061199	
2.42843	  5.047718	
2.46169	  5.050320	
2.49496	  5.059009	
2.52823	  5.062072	
2.56149	  5.060634	
2.59476	  5.063223	
2.62802	  5.072260	
2.66129	  5.082381	
2.69456	  5.091660	
2.72782	  5.103534	
2.76109	  5.115547	
2.79435	  5.117791	
2.82762	  5.108195	
2.86089	  5.101487	
2.89415	  5.111261	
2.92742	  5.130973	
2.96069	  5.147404	
2.99395	  5.159523	
3.02722	  5.171393	
3.06048	  5.180743	
3.09375	  5.182494	
3.12702	  5.176194	
3.16028	  5.167844	
3.19355	  5.163512	
3.22681	  5.162315	
3.26008	  5.163023	
3.29335	  5.169027	
3.32661	  5.177540	
3.35988	  5.179953	
3.39315	  5.175571	
3.42641	  5.169963	
3.45968	  5.166542	
3.49294	  5.165417	
3.52621	  5.162629	
3.55948	  5.154050	
3.59274	  5.139027	
3.62601	  5.117362	
3.65927	  5.094278	
3.69254	  5.080716	
3.72581	  5.076643	
3.75907	  5.071862	
3.79234	  5.064801	
3.8256	  5.060346	
3.85887	  5.056918	
3.89214	  5.049895	
3.9254	  5.040467	
3.95867	  5.035865	
3.99194	  5.041784	
4.0252	  5.055585	
4.05847	  5.070394	
4.09173	  5.080429	
4.125	  5.082034	
4.15827	  5.078716	
4.19153	  5.080488	
4.2248	  5.095485	
4.25806	  5.124357	
4.29133	  5.157005	
4.3246	  5.179703	
4.35786	  5.188858	
4.39113	  5.189291	
4.4244	  5.186865	
4.45766	  5.189930	
4.49093	  5.202043	
4.52419	  5.214814	
4.55746	  5.221299	
4.59073	  5.223409	
4.62399	  5.223878	
4.65726	  5.224083	
4.69052	  5.224451	
4.72379	  5.224362	
4.75706	  5.224322	
4.79032	  5.224009	
4.82359	  5.222247	
4.85685	  5.221392	
4.89012	  5.222881	
4.92339	  5.222335	
4.95665	  5.218447	
4.98992	  5.215183	
5.02319	  5.211243	
5.05645	  5.202258	
5.08972	  5.189050	
5.12298	  5.172944	
5.15625	  5.151204	
5.18952	  5.121514	
5.22278	  5.087714	
5.25605	  5.061528	
5.28931	  5.052368	
5.32258	  5.054384	
5.35585	  5.055210	
5.38911	  5.052464	
5.42238	  5.051921	
5.45565	  5.055993	
5.48891	  5.059344	
5.52218	  5.057831	
5.55544	  5.055677	
5.58871	  5.058644	
5.62198	  5.068035	
5.65524	  5.079373	
5.68851	  5.087169	
5.72177	  5.096527	
5.75504	  5.116658	
5.78831	  5.143200	
5.82157	  5.163915	
5.85484	  5.173716	
5.8881	  5.175169	
5.92137	  5.174413	
5.95464	  5.176068	
5.9879	  5.177954	
6.02117	  5.176606	
6.05444	  5.173118	
6.0877	  5.168973	
6.12097	  5.166574	
6.15423	  5.170350	
6.1875	  5.178279	
6.22077	  5.183348	
6.25403	  5.183579	
6.2873	  5.180511	
6.32056	  5.175481	
6.35383	  5.169700	
6.3871	  5.163539	
6.42036	  5.160708	
6.45363	  5.165210	
6.4869	  5.169386	
6.52016	  5.161926	
6.55343	  5.144938	
6.58669	  5.127971	
6.61996	  5.114159	
6.65323	  5.101126	
6.68649	  5.085762	
6.71976	  5.065913	
6.75302	  5.044622	
6.78629	  5.029390	
6.81956	  5.024649	
6.85282	  5.026698	
6.88609	  5.027227	
6.91935	  5.023309	
6.95262	  5.017305	
6.98589	  5.011836	
7.01915	  5.014010	
7.05242	  5.029045	
7.08569	  5.050803	
7.11895	  5.073114	
7.15222	  5.095282	
7.18548	  5.115924	
7.21875	  5.134752	
7.25202	  5.151509	
7.28528	  5.164828	
7.31855	  5.176642	
7.35181	  5.189172	
7.38508	  5.201758	
7.41835	  5.215135	
7.45161	  5.229537	
7.48488	  5.239642	
7.51815	  5.240379	
7.55141	  5.231916	
7.58468	  5.218790	
7.61794	  5.210458	
7.65121	  5.211659	
7.68448	  5.216067	
7.71774	  5.220660	
7.75101	  5.227696	
7.78427	  5.232575	
7.81754	  5.231693	
7.85081	  5.229339	
7.88407	  5.225216	
7.91734	  5.213446	
7.9506	  5.195173	
7.98387	  5.179691	
8.01714	  5.174939	
8.0504	  5.177143	
8.08367	  5.171621	
8.11694	  5.151375	
8.1502	  5.126131	
8.18347	  5.108614	
8.21673	  5.101894	
8.25	  5.099463	
8.28327	  5.096385	
8.31653	  5.095000	
8.3498	  5.093220	
8.38306	  5.083985	
8.41633	  5.068463	
8.4496	  5.051877	
8.48286	  5.037679	
8.51613	  5.033812	
8.5494	  5.047715	
8.58266	  5.074837	
8.61593	  5.098821	
8.64919	  5.105266	
8.68246	  5.097830	
8.71573	  5.091236	
8.74899	  5.091158	
8.78226	  5.096194	
8.81552	  5.107228	
8.84879	  5.122230	
8.88206	  5.137153	
8.91532	  5.151455	
8.94859	  5.161843	
8.98185	  5.165946	
9.01512	  5.171080	
9.04839	  5.181036	
9.08165	  5.188879	
9.11492	  5.189765	
9.14819	  5.183310	
9.18145	  5.170553	
9.21472	  5.158610	
9.24798	  5.156342	
9.28125	  5.165294	
9.31452	  5.179518	
9.34778	  5.187704	
9.38105	  5.182238	
9.41431	  5.169557	
9.44758	  5.159999	
9.48085	  5.155406	
9.51411	  5.151835	
9.54738	  5.142695	
9.58065	  5.124222	
9.61391	  5.102853	
9.64718	  5.088176	
9.68044	  5.079687	
9.71371	  5.071414	
9.74698	  5.066232	
9.78024	  5.070649	
9.81351	  5.079444	
9.84677	  5.082622	
9.88004	  5.082360	
9.91331	  5.085465	
9.94657	  5.088948	
9.97984	  5.088788	
10.0131	  5.089034	
10.0464	  5.093269	
10.0796	  5.098969	
10.1129	  5.103947	
10.1462	  5.111758	
10.1794	  5.126572	
10.2127	  5.146536	
10.246	  5.166526	
10.2792	  5.183791	
10.3125	  5.196523	
10.3458	  5.201301	
10.379	  5.199515	
10.4123	  5.198052	
10.4456	  5.199455	
10.4788	  5.203221	
10.5121	  5.210184	
10.5454	  5.218053	
10.5786	  5.222966	
10.6119	  5.223396	
10.6452	  5.219721	
10.6784	  5.215720	
10.7117	  5.214597	
10.745	  5.213430	
10.7782	  5.209320	
10.8115	  5.203357	
10.8448	  5.195330	
10.878	  5.183627	
10.9113	  5.169075	
10.9446	  5.155299	
10.9778	  5.145326	
11.0111	  5.136936	
11.0444	  5.126729	
11.0776	  5.115230	
11.1109	  5.101060	
11.1442	  5.083095	
11.1774	  5.068073	
11.2107	  5.060984	
11.244	  5.059014	
11.2772	  5.060692	
11.3105	  5.065799	
11.3437	  5.070482	
11.377	  5.071989	
11.4103	  5.071666	
11.4435	  5.070680	
11.4768	  5.066458	
11.5101	  5.055821	
11.5433	  5.040185	
11.5766	  5.023478	
11.6099	  5.008885	
11.6431	  5.000210	
11.6764	  5.000275	
11.7097	  5.007930	
11.7429	  5.019305	
11.7762	  5.028645	
11.8095	  5.029688	
11.8427	  5.023911	
11.876	  5.022081	
11.9093	  5.029208	
11.9425	  5.038731	
11.9758	  5.044786	
12.0091	  5.045722	
12.0423	  5.040814	
12.0756	  5.034043	
12.1089	  5.031176	
12.1421	  5.032677	
12.1754	  5.036474	
12.2087	  5.041490	
12.2419	  5.047023	
12.2752	  5.054576	
12.3085	  5.068436	
12.3417	  5.089218	
12.375	  5.108007	
12.4083	  5.117012	
12.4415	  5.124099	
12.4748	  5.139737	
12.5081	  5.160059	
12.5413	  5.176408	
12.5746	  5.185574	
12.6079	  5.190039	
12.6411	  5.196650	
12.6744	  5.207859	
12.7077	  5.218210	
12.7409	  5.224419	
12.7742	  5.227407	
12.8075	  5.226540	
12.8407	  5.222888	
12.874	  5.220519	
12.9073	  5.221913	
12.9405	  5.226730	
12.9738	  5.229666	
13.0071	  5.224869	
13.0403	  5.216899	
13.0736	  5.213675	
13.1069	  5.212204	
13.1401	  5.204235	
13.1734	  5.186342	
13.2067	  5.163414	
13.2399	  5.149598	
13.2732	  5.151529	
